<svg xmlns="http://www.w3.org/2000/svg" viewBox="0 0 50 50">
  <path d="M0 7L0 9.9121094C6.708 15.709109 20.532062 27.656578 21.664062 28.642578C23.074063 29.869578 24.466 30.001953 25 30.001953C25.534 30.001953 26.926937 29.870531 28.335938 28.644531C29.425937 27.695531 42.784 16.033422 50 9.7324219L50 7L0 7 z M 50 12.382812C42.588 18.853813 30.673484 29.255437 29.646484 30.148438C27.729484 31.817438 25.758 31.998047 25 31.998047C24.242 31.998047 22.270516 31.817484 20.353516 30.146484C19.290516 29.222484 7.044 18.638781 0 12.550781L0 43L50 43L50 12.382812 z" fill="#5B5B5B" />
</svg>